<svg width="893" height="226" viewBox="0 0 893 226" fill="none" xmlns="http://www.w3.org/2000/svg">
<path d="M45.3832 0.828322C37.0622 8.21018 45.18 43.6475 44.8779 42.9389C26.7858 60.6521 15.5647 85.3516 15.5647 112.671C15.5647 121.53 16.7456 130.121 18.959 138.282C18.959 138.282 32.8055 125.946 49.2499 118.9C65.6943 111.853 71.7415 109.788 75.4929 108.376C79.2442 106.97 87.8289 104.504 93.9969 89.9928C100.165 75.4817 92.3657 58.6693 92.3657 58.6693C92.3657 58.6693 87.1039 44.3999 71.1428 21.4195C59.0814 4.05789 51.2986 0.680026 48.2173 0.0648713C47.2122 -0.138349 46.1577 0.14176 45.3887 0.822824L45.3832 0.828322Z" fill="white"/>
<path d="M225.338 44.8339C217.956 36.5128 182.519 44.6306 183.227 44.3285C165.514 26.2364 140.815 15.0153 113.495 15.0153C104.636 15.0153 96.0456 16.1962 87.8838 18.4097C87.8838 18.4097 100.22 32.2561 107.267 48.7005C114.313 65.1449 116.379 71.1921 117.79 74.9435C119.196 78.6948 121.662 87.2795 136.173 93.4475C150.684 99.6156 167.497 91.8163 167.497 91.8163C167.497 91.8163 181.766 86.5545 204.747 70.5935C222.108 58.532 225.486 50.7492 226.101 47.6679C226.305 46.6628 226.024 45.6083 225.343 44.8393L225.338 44.8339Z" fill="white"/>
<path d="M180.789 224.789C189.11 217.407 180.992 181.969 181.294 182.678C199.386 164.965 210.607 140.265 210.607 112.946C210.607 104.086 209.426 95.4962 207.213 87.3344C207.213 87.3344 193.366 99.6704 176.922 106.717C160.477 113.764 154.43 115.829 150.679 117.241C146.928 118.647 138.343 121.113 132.175 135.624C126.007 150.135 133.806 166.947 133.806 166.947C133.806 166.947 139.068 181.217 155.029 204.197C167.09 221.559 174.873 224.937 177.954 225.552C178.96 225.755 180.014 225.475 180.783 224.794L180.789 224.789Z" fill="white"/>
<path d="M0.828321 180.234C8.21018 188.555 43.6475 180.437 42.9389 180.739C60.6521 198.831 85.3517 210.052 112.671 210.052C121.53 210.052 130.121 208.871 138.282 206.658C138.282 206.658 125.946 192.811 118.9 176.367C111.853 159.923 109.788 153.875 108.376 150.124C106.97 146.373 104.504 137.788 89.9928 131.62C75.4817 125.452 58.6693 133.251 58.6693 133.251C58.6693 133.251 44.3999 138.513 21.4195 154.474C4.05788 166.535 0.680025 174.318 0.0648708 177.4C-0.13835 178.405 0.141764 179.459 0.822828 180.228L0.828321 180.234Z" fill="white"/>
<path d="M267.919 184.743V41.6389H303.695L346.118 113.582C346.705 114.56 347.487 116.123 348.66 118.078L351.788 124.139C353.156 126.485 354.525 129.026 355.893 131.763H356.284C356.089 128.44 356.089 125.507 356.089 122.575C355.893 120.033 355.893 117.492 355.893 115.146V41.6389H390.496V184.743H354.916L312.884 113.973C312.297 112.996 311.32 111.627 310.147 109.477C308.974 107.326 307.801 105.176 306.823 102.83C305.455 100.288 304.086 97.5512 302.718 94.6187H302.327C302.327 98.1377 302.327 101.461 302.523 104.589V112.409L302.718 118.078V184.743H267.919ZM405.159 184.743V160.501L445.822 116.71C446.409 116.123 447.386 115.341 448.364 114.364C449.341 113.387 450.123 112.409 451.101 111.236L454.62 107.717V107.131L449.341 107.326H409.851V82.4979H493.915V106.349L455.206 148.576L448.755 155.028C447.386 156.396 446.213 157.764 444.845 159.133V159.719H455.597C457.357 159.524 458.725 159.524 459.898 159.524H497.043V184.743H405.159ZM517.179 157.764V102.634H503.69V82.3024H517.179V49.8498H549.045V82.3024H567.617V102.634H549.045V150.727C549.045 154.832 550.023 157.373 552.173 158.742C554.323 160.11 557.06 160.697 560.384 160.697H564.685L567.617 160.501V184.352C566.249 184.743 563.903 185.134 560.97 185.525C558.038 185.721 554.323 185.916 549.827 185.916C544.94 185.916 540.639 185.525 536.729 184.743C532.819 183.766 529.3 182.397 526.367 180.247C523.435 178.096 521.284 175.164 519.525 171.449C517.961 167.735 517.179 163.238 517.179 157.764ZM581.302 41.6389H650.508C657.937 41.6389 664.389 42.4209 669.863 44.1803C675.337 45.9398 680.028 48.4813 683.938 51.4138C692.149 58.2562 696.255 67.4446 696.255 78.9789C696.255 86.2123 694.495 92.0773 691.172 96.5737C687.653 101.07 682.765 104.394 676.314 106.935V107.522C684.134 109.868 690.39 114.169 695.082 120.424C699.578 126.68 701.924 134.109 701.924 142.516C701.924 149.749 700.556 156.005 698.014 161.283C695.473 166.562 691.954 170.863 687.262 174.577C678.66 181.42 666.93 184.743 652.072 184.743H581.302V41.6389ZM647.967 156.396C653.832 156.396 658.524 154.832 661.847 151.704C665.171 148.772 666.93 144.666 666.93 139.583C666.93 133.914 665.171 129.613 661.456 126.68C657.742 123.748 653.05 122.379 647.576 122.379H616.492V156.396H647.967ZM645.23 98.3332C650.313 98.3332 654.418 97.1602 657.742 94.6187C660.87 92.0773 662.434 88.5583 662.434 83.8664C662.434 79.3699 660.87 75.851 657.937 73.3095C654.809 70.768 650.704 69.595 645.425 69.595H616.492V98.3332H645.23ZM724.015 172.427C719.324 167.539 715.609 161.87 713.068 155.223C710.526 148.772 709.158 141.538 709.158 133.718C709.158 126.094 710.526 118.86 713.068 112.214C715.609 105.567 719.324 99.8972 724.015 95.0097C728.903 90.1223 734.572 86.4078 741.415 83.6709C748.257 80.9339 755.686 79.5654 763.897 79.5654C772.303 79.5654 779.732 80.9339 786.379 83.6709C793.222 86.4078 798.891 90.1223 803.583 95.0097C808.47 99.8972 812.185 105.567 814.726 112.214C817.268 118.86 818.636 126.094 818.636 133.718C818.636 141.538 817.268 148.772 814.726 155.223C812.185 161.87 808.47 167.539 803.583 172.427C798.891 177.314 793.222 181.224 786.379 183.961C779.732 186.698 772.303 188.067 763.897 188.067C755.686 188.067 748.257 186.698 741.415 183.961C734.572 181.224 728.903 177.314 724.015 172.427ZM747.475 156.201C751.19 161.87 756.468 164.802 763.701 164.802C770.935 164.802 776.409 161.87 780.123 156.201C783.838 150.531 785.597 143.102 785.597 133.718C785.597 124.334 783.838 116.71 780.123 111.041C776.409 105.371 770.935 102.439 763.701 102.439C756.468 102.439 751.19 105.371 747.475 111.041C743.956 116.71 742.197 124.334 742.197 133.718C742.197 143.102 743.956 150.531 747.475 156.201ZM837.6 157.764V102.634H824.11V82.3024H837.6V49.8498H869.466V82.3024H888.038V102.634H869.466V150.727C869.466 154.832 870.443 157.373 872.594 158.742C874.744 160.11 877.481 160.697 880.805 160.697H885.106L888.038 160.501V184.352C886.67 184.743 884.324 185.134 881.391 185.525C878.459 185.721 874.744 185.916 870.248 185.916C865.36 185.916 861.059 185.525 857.149 184.743C853.239 183.766 849.72 182.397 846.788 180.247C843.856 178.096 841.705 175.164 839.946 171.449C838.382 167.735 837.6 163.238 837.6 157.764Z" fill="white"/>
</svg>
